<svg width="32" height="28" viewBox="0 0 32 28" fill="none" xmlns="http://www.w3.org/2000/svg">
    <path d="M2 2H10.4C11.8852 2 13.3096 2.5619 14.3598 3.5621C15.41 4.56229 16 5.91885 16 7.33333V26C16 24.9391 15.5575 23.9217 14.7699 23.1716C13.9822 22.4214 12.9139 22 11.8 22H2V2Z" stroke="currentColor" stroke-width="2.5" stroke-linecap="round" stroke-linejoin="round"></path>
    <path d="M30 2H21.6C20.1148 2 18.6904 2.5619 17.6402 3.5621C16.59 4.56229 16 5.91885 16 7.33333V26C16 24.9391 16.4425 23.9217 17.2302 23.1716C18.0178 22.4214 19.0861 22 20.2 22H30V2Z" stroke="currentColor" stroke-width="2.5" stroke-linecap="round" stroke-linejoin="round"></path>
</svg>