<svg width="32" height="32" viewBox="0 0 32 32" fill="none" xmlns="http://www.w3.org/2000/svg">
    <path d="M28.7992 22.3667V26.2205C28.8006 26.5783 28.7272 26.9324 28.5836 27.2602C28.44 27.588 28.2293 27.8823 27.9652 28.1242C27.701 28.366 27.3892 28.5502 27.0496 28.6648C26.71 28.7794 26.3502 28.822 25.9931 28.7898C22.0323 28.3602 18.2277 27.0095 14.8849 24.846C11.7749 22.8737 9.13821 20.2422 7.16198 17.1383C4.98665 13.7871 3.6329 9.9715 3.2104 6.00077C3.17823 5.64553 3.22053 5.2875 3.33461 4.94948C3.44869 4.61145 3.63204 4.30083 3.87299 4.0374C4.11394 3.77397 4.40721 3.56349 4.73413 3.41937C5.06105 3.27526 5.41446 3.20066 5.77185 3.20032H9.63333C10.258 3.19418 10.8636 3.41495 11.3372 3.82147C11.8109 4.22799 12.1202 4.79253 12.2077 5.40985C12.3706 6.64316 12.6729 7.85411 13.1087 9.01961C13.2818 9.4794 13.3193 9.9791 13.2167 10.4595C13.114 10.9399 12.8755 11.3809 12.5294 11.7301L10.8947 13.3616C12.7271 16.5777 15.3952 19.2405 18.6177 21.0693L20.2524 19.4378C20.6024 19.0924 21.0442 18.8544 21.5256 18.7519C22.0069 18.6495 22.5076 18.6869 22.9683 18.8597C24.1361 19.2946 25.3495 19.5963 26.5852 19.759C27.2105 19.847 27.7815 20.1613 28.1897 20.6421C28.5979 21.1229 28.8148 21.7367 28.7992 22.3667Z" stroke="currentColor" stroke-width="3" stroke-linecap="round" stroke-linejoin="round"></path>
</svg>