<svg width="40" height="40" viewBox="0 0 40 40" fill="none" xmlns="http://www.w3.org/2000/svg">
    <path d="M5 30V20C5 16.0218 6.58035 12.2064 9.3934 9.3934C12.2064 6.58035 16.0218 5 20 5C23.9782 5 27.7936 6.58035 30.6066 9.3934C33.4196 12.2064 35 16.0218 35 20V30" stroke="currentColor" stroke-width="3" stroke-linecap="round" stroke-linejoin="round"></path>
    <path d="M35 31.6667C35 32.5508 34.6488 33.3986 34.0237 34.0237C33.3986 34.6489 32.5507 35 31.6667 35H30C29.1159 35 28.2681 34.6489 27.643 34.0237C27.0179 33.3986 26.6667 32.5508 26.6667 31.6667V26.6667C26.6667 25.7827 27.0179 24.9348 27.643 24.3097C28.2681 23.6846 29.1159 23.3334 30 23.3334H35V31.6667ZM5 31.6667C5 32.5508 5.35119 33.3986 5.97631 34.0237C6.60143 34.6489 7.44928 35 8.33333 35H10C10.8841 35 11.7319 34.6489 12.357 34.0237C12.9821 33.3986 13.3333 32.5508 13.3333 31.6667V26.6667C13.3333 25.7827 12.9821 24.9348 12.357 24.3097C11.7319 23.6846 10.8841 23.3334 10 23.3334H5V31.6667Z" stroke="currentColor" stroke-width="3" stroke-linecap="round" stroke-linejoin="round"></path>
</svg>